<svg id="Livello_1" data-name="Livello 1" xmlns="http://www.w3.org/2000/svg" viewBox="0 0 875.83 246.38"><defs><style>.cls-1{fill:#d02031;}.cls-2{fill:#075f9e;}.cls-3{fill:#f4a546;}.cls-4{fill:#2fa449;}</style></defs><title>logo</title><path class="cls-1" d="M456.64,475.93l-32-15.9a3.16,3.16,0,0,1,.09-5.73l11.91-4.84L516.59,417a3,3,0,0,1,2.2,0l99.38,38a3.21,3.21,0,0,1,1.78,1.71l15.58,35.7.36.07.3.08a4.75,4.75,0,0,1,3.48,6.3,3,3,0,0,0,0,2.27l.88,2a3.24,3.24,0,0,0,.86,1.16l3.67,3.15a3.15,3.15,0,0,1-.67,5.27l-3.93,1.71a3.15,3.15,0,0,1-4.32-3.09l.2-5a3.24,3.24,0,0,0-.27-1.42l-1.46-3.34a3,3,0,0,1-.68-.14,4.71,4.71,0,0,1-3.07-6.17,3,3,0,0,0,0-2.28l-15.44-35.39-.45.23-11.54,6.08-16.16,8.52L584,474.2a3.06,3.06,0,0,0-1.61,2.81h0l.32,10.16a3,3,0,0,1-4.44,2.78,128.3,128.3,0,0,0-22.71-9.53,124.56,124.56,0,0,0-86.79,4.46q-3.7,1.61-7.29,3.48a3.13,3.13,0,0,1-4.51-2.77l-.3-9.67" transform="translate(-102.08 -416.81)"/><path class="cls-2" d="M167.56,657a41.23,41.23,0,0,1-16.86-15.25,71.33,71.33,0,0,1-8.6-21.33,177.69,177.69,0,0,1-3.73-23.79Q137.28,584.42,136,574q-.82-7-1.61-17a175.62,175.62,0,0,1-.4-20.87,81.27,81.27,0,0,1,3.21-20.35,33.14,33.14,0,0,1,9.23-15.42q6.41-5.89,17.72-5.91,8.81,0,14,4.7a27.43,27.43,0,0,1,7.62,12,68.52,68.52,0,0,1,3.1,15.82,141.6,141.6,0,0,1,.4,16.45q-.3,8-.52,13.93-.3,12.34-.69,26.54a66.4,66.4,0,0,0,4.13,26q3,7.22,7.8,10.72a11.07,11.07,0,0,0,9.86,2q5.1-1.48,8.89-9a55.57,55.57,0,0,0,5.73-22.07q.69-11.91.69-22.93a115.5,115.5,0,0,0-1.2-16.05q-1.2-8.6-1.78-17.14a42.82,42.82,0,0,1,1.66-15.54A26.41,26.41,0,0,1,230.51,509a17.78,17.78,0,0,1,10.43-5.1q5.89-.69,11.81,4.41a21,21,0,0,1,6.71,10A47.62,47.62,0,0,1,261.58,531q.28,6.54,0,12.15.28,11,.29,24.54t-1.38,27.58a130.38,130.38,0,0,1-5.22,26.54,59.45,59.45,0,0,1-11.35,21.27,47.5,47.5,0,0,1-15.42,11.64A74.49,74.49,0,0,1,208,661.3a86.24,86.24,0,0,1-21.67.92A48.18,48.18,0,0,1,167.56,657Z" transform="translate(-102.08 -416.81)"/><path class="cls-3" d="M279.26,658.1a25.71,25.71,0,0,1-5.72-11.6,73.89,73.89,0,0,1-1.77-15.24q-.11-8.15.46-15.85c.41-5.13.68-9.49.86-13.12q.46-6.42.46-15.5t.61-19.29a151.32,151.32,0,0,1,2.48-19.85,61.47,61.47,0,0,1,5.82-17.07A24,24,0,0,1,293,520a20.11,20.11,0,0,1,14-1.87,33.22,33.22,0,0,1,12.91,6.23,38.29,38.29,0,0,1,9.47,10.53,150.7,150.7,0,0,1,11.7,22.48A148.24,148.24,0,0,0,353,580q-.21-5.66-1.06-12.86a130.91,130.91,0,0,1-.81-14.69,55.15,55.15,0,0,1,1.77-14.18,26,26,0,0,1,6.28-11.5q5.92-6.11,12.51-6.23a17.23,17.23,0,0,1,11.85,4.25q5.2,4.37,6.13,12.41,1.67,10.9,3,24.86a275.09,275.09,0,0,1,1.16,28.61,194.76,194.76,0,0,1-2.23,28.36,90.77,90.77,0,0,1-7.09,24.41q-5.47,11.55-12,13.57T359,654.56a59.18,59.18,0,0,1-14-13,184.29,184.29,0,0,1-12.86-18.18q-6-9.72-10.68-18T314.5,593q-.51,2.39-1.82,9.72t-3.39,16.81q-2.13,9.48-5,18.69a83.23,83.23,0,0,1-6.53,15.85q-3.65,6.65-8.25,8.3T279.26,658.1Z" transform="translate(-102.08 -416.81)"/><path class="cls-1" d="M508.66,662.15a73.74,73.74,0,0,1-19-.61,29.43,29.43,0,0,1-15.14-7.19q-6.23-5.72-8.86-16.61a148.41,148.41,0,0,1-3.7-27.65q-.57-14.43-.1-29t0-28.05q-.21-7.33-.91-15.75a90.37,90.37,0,0,1,.1-16.66A34.86,34.86,0,0,1,465.62,506a19.92,19.92,0,0,1,10-8.51,51.54,51.54,0,0,1,14.23-3.29,147.07,147.07,0,0,1,15.24-.61c5.06.08,9.57.1,13.52.1q7.79-.19,16.76.15a92,92,0,0,1,17.52,2.38A42,42,0,0,1,568.16,503a30.31,30.31,0,0,1,10.33,13.57,32.54,32.54,0,0,1,1.72,19.9,56.93,56.93,0,0,1-8.15,19.19,78.43,78.43,0,0,1-13,15.34A39.44,39.44,0,0,1,570.44,591a60,60,0,0,1,.81,24,49.66,49.66,0,0,1-8.61,21.37,51.81,51.81,0,0,1-24,18.48A120,120,0,0,1,508.66,662.15ZM498.54,554c.47.3,1.77.46,3.9.46a56.72,56.72,0,0,0,6.38-.35c2.13-.23,3.42-.35,3.9-.35a77.13,77.13,0,0,0,10.89-1.87,13.52,13.52,0,0,0,8.76-6.18c1.42-2.35,1.29-4.41-.35-6.13a16.9,16.9,0,0,0-7.49-4.15A44.84,44.84,0,0,0,514,533.53a33.52,33.52,0,0,0-9.93.71q-4.37,1.06-5.52,3.95a18.91,18.91,0,0,0-.51,4.25q-.21,3.76-.1,7.44C498,552.32,498.19,553.71,498.54,554Zm-1.42,72.87c3.77-.47,8.1-1.22,13-2.23a41.63,41.63,0,0,0,13.27-5.22,16.51,16.51,0,0,0,7.6-10.33q1.61-6.38-1.57-9.57a16.05,16.05,0,0,0-8.3-4.25,39.68,39.68,0,0,0-9.77-.86,59.62,59.62,0,0,0-8.66,1,7.81,7.81,0,0,0-5.32,4.25q-1.42,2.64-1.32,7.85c.1,3.44.33,7,.71,10.63A54.2,54.2,0,0,1,497.12,626.91Z" transform="translate(-102.08 -416.81)"/><path class="cls-2" d="M768.89,661.44a13.07,13.07,0,0,1-7.24-6.38,31,31,0,0,1-2.94-9.93q-.72-5.47-1-9.72-.91-13.25-.81-26.48a181.56,181.56,0,0,0-1.77-26.53q-4.52,4.52-10.33,10.89a80.35,80.35,0,0,1-12.51,11.24q-6.74,4.86-13.82,4.35a17.28,17.28,0,0,1-10.08-4.2,44.58,44.58,0,0,1-8.05-9.47,117.86,117.86,0,0,1-6.48-11.5,92.74,92.74,0,0,0-5.47-9.82,59.51,59.51,0,0,0-4.86,19.45q-.82,10.39-1.06,21a125.51,125.51,0,0,1-2.13,20.81,44.14,44.14,0,0,1-8.25,18.69q-5.68,7.6-13.27,7.6t-13-7.85A30.33,30.33,0,0,1,641,640.12a69,69,0,0,1,0-15q.85-7.69,1.57-14.33,1.41-14.17,3.44-28.36t4.15-28.21q1.16-8.24,2.58-17.72a33.8,33.8,0,0,1,6.89-16.36q6.11-7.54,13-8.61a23,23,0,0,1,13.88,2.38,52.54,52.54,0,0,1,13.22,9.32,121.92,121.92,0,0,1,11.5,12.46q5.2,6.49,8.51,11.44,3.08-5,7.8-11.7A139.7,139.7,0,0,1,738,522.34a64,64,0,0,1,12.31-10.68,25.12,25.12,0,0,1,13.47-4.35q7-.15,14.13,6a22.09,22.09,0,0,1,6.48,9.37,60,60,0,0,1,2.94,11.44q.95,5.92,1.92,11.34,2.32,13,4,26.18T795.37,598q.25,3.3.35,9.93t-.35,14.69a135.62,135.62,0,0,1-1.87,16,54.5,54.5,0,0,1-4.41,14.08,18.67,18.67,0,0,1-7.8,8.76Q776.43,664,768.89,661.44Z" transform="translate(-102.08 -416.81)"/><path class="cls-4" d="M851,662.15a73.74,73.74,0,0,1-19-.61,29.43,29.43,0,0,1-15.14-7.19q-6.23-5.72-8.86-16.61a148.41,148.41,0,0,1-3.7-27.65q-.57-14.43-.1-29t0-28.05q-.21-7.33-.91-15.75a90.37,90.37,0,0,1,.1-16.66A34.86,34.86,0,0,1,807.93,506a19.92,19.92,0,0,1,10-8.51,51.54,51.54,0,0,1,14.23-3.29,147.07,147.07,0,0,1,15.24-.61c5.06.08,9.57.1,13.52.1q7.79-.19,16.76.15a92,92,0,0,1,17.52,2.38A42,42,0,0,1,910.47,503a30.31,30.31,0,0,1,10.33,13.57,32.54,32.54,0,0,1,1.72,19.9,56.93,56.93,0,0,1-8.15,19.19,78.43,78.43,0,0,1-13,15.34A39.44,39.44,0,0,1,912.75,591a60,60,0,0,1,.81,24A49.66,49.66,0,0,1,905,636.33a51.81,51.81,0,0,1-24,18.48A120,120,0,0,1,851,662.15ZM840.84,554c.47.3,1.77.46,3.9.46a56.72,56.72,0,0,0,6.38-.35c2.13-.23,3.42-.35,3.9-.35a77.13,77.13,0,0,0,10.89-1.87,13.52,13.52,0,0,0,8.76-6.18c1.42-2.35,1.29-4.41-.35-6.13a16.9,16.9,0,0,0-7.49-4.15,44.84,44.84,0,0,0-10.53-1.92,33.52,33.52,0,0,0-9.93.71q-4.37,1.06-5.52,3.95a18.91,18.91,0,0,0-.51,4.25q-.21,3.76-.1,7.44C840.3,552.32,840.5,553.71,840.84,554Zm-1.42,72.87c3.77-.47,8.1-1.22,13-2.23a41.63,41.63,0,0,0,13.27-5.22,16.51,16.51,0,0,0,7.6-10.33q1.61-6.38-1.57-9.57a16.05,16.05,0,0,0-8.3-4.25,39.68,39.68,0,0,0-9.77-.86,59.62,59.62,0,0,0-8.66,1,7.81,7.81,0,0,0-5.32,4.25q-1.42,2.64-1.32,7.85c.1,3.44.33,7,.71,10.63A54.2,54.2,0,0,1,839.43,626.91Z" transform="translate(-102.08 -416.81)"/><path class="cls-3" d="M617.46,659.82q-7.8,5.41-15.14,2.13a22.36,22.36,0,0,1-11.09-11.14,53.25,53.25,0,0,1-4.66-17.37,144.46,144.46,0,0,1-.71-20.46q.34-10.67,1.32-20.81t1.67-18q.46-5,.91-11.44a74.68,74.68,0,0,1,2.13-12.91,23.21,23.21,0,0,1,5.22-10.18q5.2-5.41,10.89-5.06a19.46,19.46,0,0,1,10.74,4.25,25,25,0,0,1,7.75,9.82,77.22,77.22,0,0,1,6.68,28.51,168,168,0,0,1-1.27,31.55q-2.13,15.86-4.71,29.12-1.22,5.92-2.73,12A17.7,17.7,0,0,1,617.46,659.82Z" transform="translate(-102.08 -416.81)"/><path class="cls-3" d="M591.09,516.11a14,14,0,0,1,.5-9.2,22.34,22.34,0,0,1,5.7-8.21,19.83,19.83,0,0,1,8.71-4.83,17.76,17.76,0,0,1,5.1-.23,23.54,23.54,0,0,1,6.3,1.38,11.66,11.66,0,0,1,4.89,3.15,4.69,4.69,0,0,1,.74,4.9,11.88,11.88,0,0,1-.5,9.3,22.38,22.38,0,0,1-6.48,8.12,23.9,23.9,0,0,1-9.35,4.7,14,14,0,0,1-9.35-.76Q593.07,522.43,591.09,516.11Z" transform="translate(-102.08 -416.81)"/><path class="cls-2" d="M435.5,659.32q-7.8,5.41-15.14,2.13a22.36,22.36,0,0,1-11.09-11.14,53.25,53.25,0,0,1-4.66-17.37,144.46,144.46,0,0,1-.71-20.46q.34-10.67,1.32-20.81t1.67-18q.46-5,.91-11.44a74.68,74.68,0,0,1,2.13-12.91,23.21,23.21,0,0,1,5.22-10.18q5.2-5.41,10.89-5.06a19.46,19.46,0,0,1,10.74,4.25,25,25,0,0,1,7.75,9.82,77.22,77.22,0,0,1,6.68,28.51,168,168,0,0,1-1.27,31.55q-2.13,15.86-4.71,29.12-1.22,5.92-2.73,12A17.7,17.7,0,0,1,435.5,659.32Z" transform="translate(-102.08 -416.81)"/><path class="cls-2" d="M413.27,516.06a14,14,0,0,1,.5-9.2,22.34,22.34,0,0,1,5.7-8.21,19.83,19.83,0,0,1,8.71-4.83,17.76,17.76,0,0,1,5.1-.23,23.54,23.54,0,0,1,6.3,1.38,11.66,11.66,0,0,1,4.89,3.15,4.69,4.69,0,0,1,.74,4.9,11.88,11.88,0,0,1-.5,9.3,22.38,22.38,0,0,1-6.48,8.12,23.9,23.9,0,0,1-9.35,4.7,14,14,0,0,1-9.35-.76Q415.25,522.37,413.27,516.06Z" transform="translate(-102.08 -416.81)"/><path class="cls-3" d="M962,659.32q-7.8,5.41-15.14,2.13a22.36,22.36,0,0,1-11.09-11.14,53.25,53.25,0,0,1-4.66-17.37,144.46,144.46,0,0,1-.71-20.46q.34-10.67,1.32-20.81t1.67-18q.46-5,.91-11.44a74.68,74.68,0,0,1,2.13-12.91,23.21,23.21,0,0,1,5.22-10.18q5.2-5.41,10.89-5.06a19.46,19.46,0,0,1,10.74,4.25,25,25,0,0,1,7.75,9.82,77.22,77.22,0,0,1,6.68,28.51,168,168,0,0,1-1.27,31.55q-2.13,15.86-4.71,29.12-1.22,5.92-2.73,12A17.7,17.7,0,0,1,962,659.32Z" transform="translate(-102.08 -416.81)"/><path class="cls-3" d="M938,516.08a14,14,0,0,1,.5-9.2,22.34,22.34,0,0,1,5.7-8.21,19.83,19.83,0,0,1,8.71-4.83,17.76,17.76,0,0,1,5.1-.23,23.54,23.54,0,0,1,6.3,1.38,11.66,11.66,0,0,1,4.89,3.15A4.69,4.69,0,0,1,970,503a11.88,11.88,0,0,1-.5,9.3,22.38,22.38,0,0,1-6.48,8.12,23.9,23.9,0,0,1-9.35,4.7,14,14,0,0,1-9.35-.76Q940,522.4,938,516.08Z" transform="translate(-102.08 -416.81)"/><path class="cls-3" d="M146.24,459.91l3.34,7.85h7.48L151.65,473l1.28,7.44L146.24,477l-6.69,3.52,1.28-7.44-5.4-5.28h7.47l3.34-7.85" transform="translate(-102.08 -416.81)"/><path class="cls-2" d="M122.09,438.63l2.25,5.29h5l-3.65,3.56.86,5-4.51-2.36-4.5,2.36.85-5-3.63-3.56h5l2.25-5.29" transform="translate(-102.08 -416.81)"/><path class="cls-3" d="M106.86,478.38l1.47,3.48h3.31l-2.39,2.33.56,3.3-3-1.56-3,1.56.57-3.3-2.39-2.33h3.3l1.47-3.48" transform="translate(-102.08 -416.81)"/></svg>