<svg id="Livello_1" data-name="Livello 1" xmlns="http://www.w3.org/2000/svg" viewBox="0 0 1080 1080"><defs><style>.cls-1{fill:none;}.cls-2{fill:#d02031;}.cls-3{fill:#075f9e;}.cls-4{fill:#f4a546;}.cls-5{fill:#2fa449;}</style></defs><title>UNIBIMBI LOGO COLORATO</title><rect class="cls-1" x="215.8" y="476.05" width="132.35" height="96.46"/><path class="cls-2" d="M479.44,492.71,455.84,481a2.33,2.33,0,0,1,.07-4.23l8.79-3.57,59-23.94a2.21,2.21,0,0,1,1.63,0l73.35,28.08a2.37,2.37,0,0,1,1.32,1.27l11.5,26.35.27.05.22.06a3.5,3.5,0,0,1,2.57,4.65,2.21,2.21,0,0,0,0,1.68l.65,1.49a2.39,2.39,0,0,0,.63.86l2.71,2.33a2.33,2.33,0,0,1-.5,3.89l-2.9,1.26a2.33,2.33,0,0,1-3.19-2.28l.14-3.72a2.39,2.39,0,0,0-.2-1l-1.08-2.47a2.23,2.23,0,0,1-.5-.11A3.48,3.48,0,0,1,608,507a2.23,2.23,0,0,0,0-1.68l-11.4-26.12-.33.17-8.52,4.49-11.93,6.29-2.44,1.28a2.26,2.26,0,0,0-1.19,2.08h0l.24,7.5a2.21,2.21,0,0,1-3.28,2.05,94.7,94.7,0,0,0-16.76-7,91.94,91.94,0,0,0-64.06,3.29q-2.73,1.19-5.38,2.57a2.31,2.31,0,0,1-3.33-2l-.22-7.14"/><path class="cls-3" d="M266.06,626.36a30.44,30.44,0,0,1-12.44-11.26,52.65,52.65,0,0,1-6.35-15.74,131.16,131.16,0,0,1-2.75-17.56q-.81-9-1.78-16.71-.6-5.16-1.18-12.57a129.63,129.63,0,0,1-.3-15.4,60,60,0,0,1,2.37-15,24.46,24.46,0,0,1,6.81-11.38q4.73-4.35,13.08-4.36,6.51,0,10.37,3.47a20.24,20.24,0,0,1,5.63,8.89,50.57,50.57,0,0,1,2.29,11.68,104.51,104.51,0,0,1,.3,12.14q-.22,5.93-.38,10.28-.22,9.11-.51,19.59a49,49,0,0,0,3,19.17,17.8,17.8,0,0,0,5.76,7.91,8.17,8.17,0,0,0,7.28,1.48q3.76-1.09,6.56-6.64A41,41,0,0,0,308.08,578q.51-8.79.51-16.93a85.25,85.25,0,0,0-.89-11.85q-.89-6.35-1.31-12.65a31.61,31.61,0,0,1,1.23-11.47,19.49,19.49,0,0,1,4.91-8,13.13,13.13,0,0,1,7.7-3.77q4.35-.51,8.72,3.26a15.5,15.5,0,0,1,5,7.41,35.15,35.15,0,0,1,1.57,9.31q.21,4.82,0,9,.21,8.12.21,18.11t-1,20.35a96.23,96.23,0,0,1-3.85,19.59,43.88,43.88,0,0,1-8.38,15.7A35.06,35.06,0,0,1,311,624.67a55,55,0,0,1-15.15,4.87,63.65,63.65,0,0,1-16,.68A35.56,35.56,0,0,1,266.06,626.36Z"/><path class="cls-4" d="M348.51,627.17a19,19,0,0,1-4.22-8.56A54.54,54.54,0,0,1,343,607.36q-.08-6,.34-11.7c.3-3.78.5-7,.64-9.68q.34-4.74.34-11.44t.45-14.24a111.69,111.69,0,0,1,1.83-14.65,45.38,45.38,0,0,1,4.3-12.6,17.69,17.69,0,0,1,7.77-7.85A14.84,14.84,0,0,1,369,523.82a24.52,24.52,0,0,1,9.53,4.6,28.26,28.26,0,0,1,7,7.77,111.23,111.23,0,0,1,8.63,16.6A109.42,109.42,0,0,0,403,569.54q-.15-4.18-.78-9.49a96.63,96.63,0,0,1-.6-10.84,40.71,40.71,0,0,1,1.31-10.47,19.18,19.18,0,0,1,4.63-8.48q4.37-4.51,9.23-4.6a12.72,12.72,0,0,1,8.75,3.14A13.37,13.37,0,0,1,430,538q1.23,8,2.21,18.35a203.05,203.05,0,0,1,.86,21.12,143.76,143.76,0,0,1-1.64,20.93,67,67,0,0,1-5.23,18q-4,8.52-8.86,10t-10-1.83A43.68,43.68,0,0,1,397,614.95a136,136,0,0,1-9.49-13.42q-4.46-7.18-7.89-13.27t-5.12-9.12q-.38,1.77-1.35,7.18t-2.5,12.41q-1.57,7-3.66,13.79a61.43,61.43,0,0,1-4.82,11.7q-2.69,4.91-6.09,6.13T348.51,627.17Z"/><path class="cls-2" d="M517.83,630.16a54.43,54.43,0,0,1-14.05-.45,21.72,21.72,0,0,1-11.18-5.31q-4.6-4.22-6.54-12.26a109.54,109.54,0,0,1-2.73-20.41q-.42-10.65-.07-21.38t0-20.71q-.15-5.41-.67-11.62a66.71,66.71,0,0,1,.07-12.3,25.73,25.73,0,0,1,3.4-10.84,14.7,14.7,0,0,1,7.4-6.28,38,38,0,0,1,10.5-2.43,108.55,108.55,0,0,1,11.25-.45c3.74.06,7.06.07,10,.07q5.75-.14,12.37.11a67.89,67.89,0,0,1,12.93,1.76,31,31,0,0,1,11.25,5,22.37,22.37,0,0,1,7.63,10,24,24,0,0,1,1.27,14.69,42,42,0,0,1-6,14.17,57.89,57.89,0,0,1-9.57,11.33,29.11,29.11,0,0,1,8.37,14.69,44.32,44.32,0,0,1,.6,17.72,36.66,36.66,0,0,1-6.35,15.77A38.24,38.24,0,0,1,540,624.74,88.55,88.55,0,0,1,517.83,630.16Zm-7.48-79.8a7,7,0,0,0,2.88.34,41.87,41.87,0,0,0,4.71-.26c1.57-.17,2.52-.26,2.88-.26a56.93,56.93,0,0,0,8-1.38,10,10,0,0,0,6.47-4.56c1-1.74,1-3.25-.26-4.52a12.47,12.47,0,0,0-5.53-3.06,33.1,33.1,0,0,0-7.77-1.42,24.74,24.74,0,0,0-7.33.52q-3.22.78-4.07,2.92a14,14,0,0,0-.37,3.14q-.15,2.78-.07,5.49C510,549.09,510.11,550.12,510.36,550.36Zm-1,53.79c2.78-.35,6-.9,9.57-1.64a30.73,30.73,0,0,0,9.79-3.85,12.19,12.19,0,0,0,5.61-7.62q1.19-4.71-1.16-7.06a11.85,11.85,0,0,0-6.13-3.14,29.29,29.29,0,0,0-7.21-.64,44,44,0,0,0-6.39.71,5.76,5.76,0,0,0-3.92,3.14,12,12,0,0,0-1,5.79c.07,2.54.24,5.16.52,7.85A40,40,0,0,1,509.31,604.15Z"/><path class="cls-3" d="M709.91,629.64a9.65,9.65,0,0,1-5.34-4.71,22.89,22.89,0,0,1-2.17-7.33q-.53-4-.71-7.18-.67-9.78-.6-19.55a134,134,0,0,0-1.31-19.59q-3.34,3.34-7.62,8a59.31,59.31,0,0,1-9.23,8.3,15.28,15.28,0,0,1-10.2,3.21,12.76,12.76,0,0,1-7.44-3.1,32.91,32.91,0,0,1-5.94-7,87,87,0,0,1-4.78-8.48,68.45,68.45,0,0,0-4-7.25,43.93,43.93,0,0,0-3.59,14.35q-.6,7.67-.78,15.51a92.64,92.64,0,0,1-1.57,15.36A32.58,32.58,0,0,1,638.48,624q-4.19,5.61-9.79,5.61t-9.57-5.79a22.38,22.38,0,0,1-3.63-9.94,50.92,50.92,0,0,1,0-11.06q.63-5.68,1.16-10.58,1-10.46,2.54-20.93t3.06-20.82q.86-6.08,1.91-13.08a25,25,0,0,1,5.08-12.07q4.51-5.56,9.57-6.35a17,17,0,0,1,10.24,1.76,38.78,38.78,0,0,1,9.76,6.88,90,90,0,0,1,8.48,9.19q3.84,4.79,6.28,8.45,2.27-3.66,5.76-8.63a103.11,103.11,0,0,1,7.77-9.68,47.22,47.22,0,0,1,9.08-7.89,18.54,18.54,0,0,1,9.94-3.21q5.16-.11,10.43,4.45a16.3,16.3,0,0,1,4.78,6.91,44.29,44.29,0,0,1,2.17,8.45q.7,4.37,1.42,8.37,1.71,9.62,3,19.32t1.57,19.47q.18,2.44.26,7.33T729.46,601a100.1,100.1,0,0,1-1.38,11.77,40.23,40.23,0,0,1-3.25,10.39,13.78,13.78,0,0,1-5.76,6.47Q715.48,631.55,709.91,629.64Z"/><path class="cls-5" d="M770.5,630.16a54.43,54.43,0,0,1-14.05-.45,21.72,21.72,0,0,1-11.18-5.31q-4.6-4.22-6.54-12.26A109.54,109.54,0,0,1,736,591.74q-.42-10.65-.07-21.38t0-20.71q-.15-5.41-.67-11.62a66.71,66.71,0,0,1,.07-12.3,25.73,25.73,0,0,1,3.4-10.84,14.7,14.7,0,0,1,7.4-6.28,38,38,0,0,1,10.5-2.43,108.55,108.55,0,0,1,11.25-.45c3.74.06,7.06.07,10,.07q5.75-.14,12.37.11a67.89,67.89,0,0,1,12.93,1.76,31,31,0,0,1,11.25,5,22.37,22.37,0,0,1,7.63,10,24,24,0,0,1,1.27,14.69,42,42,0,0,1-6,14.17,57.89,57.89,0,0,1-9.57,11.33,29.11,29.11,0,0,1,8.37,14.69,44.32,44.32,0,0,1,.6,17.72,36.66,36.66,0,0,1-6.35,15.77,38.24,38.24,0,0,1-17.72,13.64A88.55,88.55,0,0,1,770.5,630.16ZM763,550.36a7,7,0,0,0,2.88.34,41.87,41.87,0,0,0,4.71-.26c1.57-.17,2.52-.26,2.88-.26a56.93,56.93,0,0,0,8-1.38,10,10,0,0,0,6.47-4.56c1-1.74,1-3.25-.26-4.52a12.47,12.47,0,0,0-5.53-3.06,33.1,33.1,0,0,0-7.77-1.42,24.74,24.74,0,0,0-7.33.52q-3.22.78-4.07,2.92a14,14,0,0,0-.37,3.14q-.15,2.78-.07,5.49C762.62,549.09,762.77,550.12,763,550.36Zm-1,53.79c2.78-.35,6-.9,9.57-1.64a30.73,30.73,0,0,0,9.79-3.85,12.19,12.19,0,0,0,5.61-7.62q1.19-4.71-1.16-7.06a11.85,11.85,0,0,0-6.13-3.14,29.29,29.29,0,0,0-7.21-.64,44,44,0,0,0-6.39.71,5.76,5.76,0,0,0-3.92,3.14,12,12,0,0,0-1,5.79c.07,2.54.24,5.16.52,7.85A40,40,0,0,1,762,604.15Z"/><path class="cls-4" d="M598.14,628.44q-5.76,4-11.18,1.57a16.5,16.5,0,0,1-8.19-8.22A39.3,39.3,0,0,1,575.34,609a106.63,106.63,0,0,1-.52-15.1q.25-7.88,1-15.36T577,565.2q.34-3.66.67-8.45a55.12,55.12,0,0,1,1.57-9.53,17.13,17.13,0,0,1,3.85-7.51q3.84-4,8-3.74a14.37,14.37,0,0,1,7.92,3.14,18.43,18.43,0,0,1,5.72,7.25,57,57,0,0,1,4.93,21,124,124,0,0,1-.93,23.29q-1.57,11.7-3.48,21.49-.9,4.37-2,8.82A13.06,13.06,0,0,1,598.14,628.44Z"/><path class="cls-4" d="M578.67,522.37a10.34,10.34,0,0,1,.37-6.79,16.49,16.49,0,0,1,4.21-6.06,14.63,14.63,0,0,1,6.43-3.57,13.11,13.11,0,0,1,3.76-.17,17.37,17.37,0,0,1,4.65,1,8.61,8.61,0,0,1,3.61,2.33,3.46,3.46,0,0,1,.55,3.61,8.77,8.77,0,0,1-.37,6.86,16.52,16.52,0,0,1-4.78,6,17.64,17.64,0,0,1-6.9,3.47,10.31,10.31,0,0,1-6.9-.56Q580.13,527,578.67,522.37Z"/><path class="cls-3" d="M463.83,628.07q-5.76,4-11.18,1.57a16.5,16.5,0,0,1-8.19-8.22A39.3,39.3,0,0,1,441,608.6a106.63,106.63,0,0,1-.52-15.1q.25-7.88,1-15.36t1.23-13.31q.34-3.66.67-8.45a55.12,55.12,0,0,1,1.57-9.53,17.13,17.13,0,0,1,3.85-7.51q3.84-4,8-3.74a14.37,14.37,0,0,1,7.92,3.14,18.43,18.43,0,0,1,5.72,7.25,57,57,0,0,1,4.93,21,124,124,0,0,1-.93,23.29Q472.92,602,471,611.81q-.9,4.37-2,8.82A13.06,13.06,0,0,1,463.83,628.07Z"/><path class="cls-3" d="M447.42,522.33a10.34,10.34,0,0,1,.37-6.79,16.49,16.49,0,0,1,4.21-6.06,14.63,14.63,0,0,1,6.43-3.57,13.11,13.11,0,0,1,3.76-.17,17.37,17.37,0,0,1,4.65,1,8.61,8.61,0,0,1,3.61,2.33,3.46,3.46,0,0,1,.55,3.61,8.77,8.77,0,0,1-.37,6.86,16.52,16.52,0,0,1-4.78,6,17.64,17.64,0,0,1-6.9,3.47,10.31,10.31,0,0,1-6.9-.56Q448.88,527,447.42,522.33Z"/><path class="cls-4" d="M852.43,628.07q-5.76,4-11.18,1.57a16.5,16.5,0,0,1-8.19-8.22,39.3,39.3,0,0,1-3.44-12.82,106.63,106.63,0,0,1-.52-15.1q.25-7.88,1-15.36t1.23-13.31q.34-3.66.67-8.45a55.12,55.12,0,0,1,1.57-9.53,17.13,17.13,0,0,1,3.85-7.51q3.84-4,8-3.74a14.37,14.37,0,0,1,7.92,3.14,18.43,18.43,0,0,1,5.72,7.25A57,57,0,0,1,864,567a124,124,0,0,1-.93,23.29q-1.57,11.7-3.48,21.49-.9,4.37-2,8.82A13.06,13.06,0,0,1,852.43,628.07Z"/><path class="cls-4" d="M834.76,522.35a10.34,10.34,0,0,1,.37-6.79,16.49,16.49,0,0,1,4.21-6.06,14.63,14.63,0,0,1,6.43-3.57,13.11,13.11,0,0,1,3.76-.17,17.37,17.37,0,0,1,4.65,1,8.61,8.61,0,0,1,3.61,2.33,3.46,3.46,0,0,1,.55,3.61,8.77,8.77,0,0,1-.37,6.86,16.52,16.52,0,0,1-4.78,6,17.64,17.64,0,0,1-6.9,3.47,10.31,10.31,0,0,1-6.9-.56Q836.22,527,834.76,522.35Z"/><path class="cls-4" d="M250.33,480.89l2.46,5.8h5.52l-4,3.9.94,5.49-4.93-2.6-4.94,2.6.94-5.49-4-3.9h5.51l2.47-5.8"/><path class="cls-3" d="M232.5,465.18l1.66,3.91h3.72l-2.69,2.63.64,3.7-3.33-1.74-3.32,1.74.63-3.7-2.68-2.62h3.71l1.66-3.91"/><path class="cls-4" d="M221.26,494.52l1.09,2.57h2.44L223,498.8l.42,2.43-2.18-1.15-2.18,1.15.42-2.43-1.77-1.72h2.44l1.09-2.57"/></svg>